<svg width="1200" height="300" xmlns="http://www.w3.org/2000/svg">
  <!-- Background gradient -->
  <defs>
    <linearGradient id="bgGradient" x1="0%" y1="0%" x2="100%" y2="100%">
      <stop offset="0%" style="stop-color:#1e3a8a;stop-opacity:1" />
      <stop offset="50%" style="stop-color:#3b82f6;stop-opacity:1" />
      <stop offset="100%" style="stop-color:#60a5fa;stop-opacity:1" />
    </linearGradient>
    <linearGradient id="snakeGradient" x1="0%" y1="0%" x2="100%" y2="0%">
      <stop offset="0%" style="stop-color:#fbbf24;stop-opacity:1" />
      <stop offset="100%" style="stop-color:#f59e0b;stop-opacity:1" />
    </linearGradient>
  </defs>
  
  <rect width="1200" height="300" fill="url(#bgGradient)"/>
  
  <!-- Decorative circles -->
  <circle cx="100" cy="50" r="40" fill="#ffffff" opacity="0.1"/>
  <circle cx="1100" cy="250" r="60" fill="#ffffff" opacity="0.1"/>
  <circle cx="200" cy="200" r="30" fill="#ffffff" opacity="0.15"/>
  <circle cx="1000" cy="100" r="45" fill="#ffffff" opacity="0.1"/>
  
  <!-- Python logo inspired icon -->
  <g transform="translate(100, 100)">
    <path d="M 50 0 L 70 0 Q 90 0 90 20 L 90 60 Q 90 80 70 80 L 30 80 Q 10 80 10 60 L 10 40" 
          fill="url(#snakeGradient)" stroke="#1e3a8a" stroke-width="2"/>
    <path d="M 10 40 L 10 20 Q 10 0 30 0 L 50 0" 
          fill="#3b82f6" stroke="#1e3a8a" stroke-width="2"/>
    <circle cx="75" cy="25" r="5" fill="#1e3a8a"/>
    <circle cx="25" cy="55" r="5" fill="#fbbf24"/>
  </g>
  
  <!-- Main title -->
  <text x="600" y="120" font-family="Arial, sans-serif" font-size="56" font-weight="bold" 
        fill="#ffffff" text-anchor="middle">
    Python Programming
  </text>
  
  <!-- Subtitle -->
  <text x="600" y="170" font-family="Arial, sans-serif" font-size="32" 
        fill="#fbbf24" text-anchor="middle">
    From Zero to Hero 🐍🚀
  </text>
  
  <!-- Tag line -->
  <text x="600" y="220" font-family="Arial, sans-serif" font-size="18" 
        fill="#e0e7ff" text-anchor="middle">
    30+ Programs • 8 Modules • Well-Commented Code
  </text>
  
  <!-- Decorative code brackets -->
  <text x="350" y="140" font-family="monospace" font-size="80" 
        fill="#60a5fa" opacity="0.3">{</text>
  <text x="800" y="140" font-family="monospace" font-size="80" 
        fill="#60a5fa" opacity="0.3">}</text>
</svg>
